<svg width="602" height="600" viewBox="0 0 602 600" fill="none" xmlns="http://www.w3.org/2000/svg">
<path d="M193.28 1.05768L184 1.53766V79.7776V158.018L178.24 155.618C170.08 152.098 148.32 148.578 136 148.578C115.04 148.578 83.84 155.298 68.16 163.298C44.16 175.298 23.36 197.378 12.96 222.018C1.76 248.258 0 265.698 0 346.338C0 381.698 0.48 411.778 0.96 413.218C1.76 415.458 10.72 415.778 85.12 415.778H168.32L167.52 419.298C161.92 441.378 162.08 481.538 167.84 502.818C179.04 544.898 208.32 574.978 252.32 590.018C275.04 597.698 286.56 598.658 353.28 599.298L416 599.778V517.218V434.658L419.68 435.618C421.6 436.258 427.52 437.858 432.8 439.458C446.4 443.298 484.16 443.138 501.6 439.138C555.36 426.818 592.32 384.258 600 326.018C601.12 317.698 601.6 287.618 601.28 246.178L600.8 179.778L516.48 179.298L432.32 178.978L434.08 172.898C435.2 169.378 436 154.658 436 136.578C436 102.338 433.92 91.4577 423.2 70.1777C408.16 40.0977 379.36 16.4177 347.2 7.29767C324.16 0.737669 309.28 -0.382344 254.88 0.0976562C226.08 0.257656 198.24 0.737678 193.28 1.05768ZM314.4 50.1777C333.28 53.3777 349.28 61.2177 361.44 73.0577C376.96 88.2577 383.68 105.058 385.12 131.778C386.56 162.338 380.8 179.458 362.24 199.618C353.76 208.738 348.96 212.418 338.4 217.538C324.64 224.098 308 228.578 296.48 228.578H289.6V252.578V276.578H296.48C307.2 276.578 328.8 273.698 340.32 270.818C361.6 265.538 382.72 253.538 397.44 238.818L404.96 230.978L477.44 230.338L549.92 229.858L551.04 238.178C552.48 248.578 550.88 306.178 548.64 324.578C544.64 358.018 522.56 382.498 489.92 389.538C461.44 395.458 428.96 388.098 409.28 370.978C391.36 355.458 377.6 324.898 377.6 300.738V287.778H352.8H328V299.938C328 322.018 336.64 354.818 347.36 373.378C349.28 376.898 354.08 383.938 357.92 389.058L364.8 398.178V473.538V548.898L323.68 548.098C294.24 547.618 280 546.658 274.08 545.058C255.04 539.618 232.96 521.538 224.48 504.418C216.8 488.898 215.2 481.058 215.36 457.378C215.36 437.858 215.84 434.818 219.52 425.858C233.92 391.618 258.88 374.018 299.2 370.018L310.4 368.898V346.178V323.298L305.92 322.658C303.52 322.338 294.08 322.658 284.96 323.298C256.16 325.378 232.96 334.338 208.32 352.738L196.64 361.538H126.72C88.32 361.698 55.52 361.538 54.08 361.538C51.36 361.378 51.2 358.178 51.2 318.498C51.36 256.578 54.72 242.338 74.24 222.818C89.92 207.298 105.6 201.378 131.52 201.378C150.56 201.378 161.12 203.458 173.6 209.698C186.4 216.258 193.44 222.018 203.2 234.178C217.44 251.938 227.2 279.298 227.2 300.738V308.578H252.32H277.28L276.32 292.098C274.4 258.338 263.68 228.898 243.68 202.658L237.92 195.138L237.76 124.258C237.6 85.2176 237.76 52.0977 238.08 50.4977C238.72 48.0977 241.6 47.7776 269.44 47.7776C289.44 47.7776 304.96 48.5777 314.4 50.1777Z" fill="#B7B5C2"/>
</svg>
